<?xml version="1.0" encoding="UTF-8" standalone="no"?>
<!DOCTYPE svg PUBLIC "-//W3C//DTD SVG 1.1//EN" "http://www.w3.org/Graphics/SVG/1.1/DTD/svg11.dtd">
<svg xmlns="http://www.w3.org/2000/svg" version="1.1" viewBox="224 224 864 864" width="128px" height="128px">
<path d="M 499.00 256.43 C 511.94 256.43 525.15 255.86 538.00 257.34 C 547.81 257.34 556.79 260.26 566.37 261.71 C 570.93 262.43 575.30 263.78 579.70 265.14 C 598.97 270.18 617.35 277.82 634.87 287.24 C 644.66 292.98 655.33 298.70 663.98 306.05 C 667.32 308.74 670.97 310.93 674.04 313.96 C 677.31 317.13 681.30 319.26 684.51 322.48 C 690.67 328.66 696.91 334.75 703.00 341.01 C 705.18 343.31 706.66 345.99 708.66 348.42 C 712.82 352.68 715.96 357.64 719.72 362.23 C 722.10 365.53 724.15 369.03 726.63 372.27 C 732.21 380.62 736.68 389.41 741.73 398.14 C 747.19 411.36 753.15 424.05 757.01 437.88 C 760.98 450.39 763.58 463.22 765.64 476.17 C 768.12 493.14 767.73 509.92 767.53 527.00 C 767.44 531.71 766.60 536.34 766.50 541.04 C 766.24 549.51 763.57 557.36 762.47 565.55 C 761.96 568.72 760.84 571.81 760.08 574.93 C 755.05 595.91 746.97 615.90 736.75 634.87 C 730.65 645.40 725.04 655.73 717.10 665.06 C 713.11 671.09 707.91 675.97 703.82 681.91 C 697.04 689.39 689.67 696.40 682.47 703.47 C 678.75 706.45 674.80 708.95 671.42 712.37 C 660.26 720.39 649.71 728.93 637.42 735.25 C 632.96 737.34 629.03 740.36 624.53 742.33 C 612.18 747.32 600.54 752.90 587.64 756.54 C 574.65 760.73 561.31 763.57 547.83 765.63 C 532.92 767.82 518.02 767.78 503.00 767.61 C 495.09 767.74 487.28 766.73 479.40 766.16 C 467.72 763.93 455.59 762.61 444.30 758.86 C 431.59 755.58 419.17 750.97 407.16 745.70 C 402.01 743.21 396.88 740.69 391.72 738.20 C 376.86 729.91 361.38 720.79 348.93 709.10 C 345.84 706.39 342.39 704.43 339.49 701.52 C 333.49 695.51 327.43 689.56 321.48 683.50 C 318.46 680.44 316.56 676.56 313.50 673.50 C 310.38 670.42 308.36 666.66 305.68 663.23 C 298.39 653.84 292.03 643.82 286.53 633.27 C 282.52 626.91 279.41 620.12 276.75 613.09 C 274.05 605.75 270.71 598.73 268.55 591.18 C 260.94 567.53 256.17 542.91 256.36 518.00 C 256.39 507.29 256.06 496.66 257.34 486.00 C 257.36 475.88 260.42 466.64 261.85 456.73 C 264.13 448.46 266.07 439.99 268.73 431.88 C 272.69 421.05 276.10 410.52 281.42 400.25 C 287.29 387.98 294.42 376.25 302.09 365.04 C 306.64 359.57 310.43 353.56 315.34 348.41 C 317.85 345.49 319.72 342.21 322.48 339.49 C 326.85 335.19 331.08 330.75 335.48 326.48 C 338.57 323.48 341.23 320.36 344.86 317.96 C 347.49 316.25 349.78 314.20 352.07 312.08 C 364.44 302.34 377.32 293.44 391.33 286.18 C 401.91 279.46 412.91 276.26 424.42 271.40 C 448.25 262.90 473.66 257.22 499.00 256.43 Z" fill="#fed001" />
<path d="M 647.40 396.41 C 652.61 394.57 658.25 395.96 661.94 400.07 C 667.13 405.35 666.69 415.13 660.15 419.16 C 654.05 423.66 645.41 421.96 640.79 416.21 C 638.07 412.39 637.85 406.92 639.74 402.70 C 641.20 399.66 644.27 397.49 647.40 396.41 Z" fill="#272221" />
<path d="M 361.39 399.43 C 363.83 398.67 366.46 398.56 368.97 398.95 C 377.39 400.15 382.91 410.97 378.37 418.36 C 375.25 424.56 367.54 426.75 361.17 424.92 C 355.75 422.95 351.44 417.02 352.20 411.14 C 352.61 405.92 356.42 401.05 361.39 399.43 Z" fill="#272221" />
<path d="M 514.44 400.64 C 521.12 399.00 526.60 402.32 531.21 406.79 C 534.71 410.47 536.48 415.55 535.59 420.61 C 534.35 426.73 529.75 432.08 523.57 433.59 C 513.77 437.25 501.23 431.51 498.97 420.97 C 497.14 411.39 505.49 402.49 514.44 400.64 Z" fill="#272221" />
<path d="M 386.89 419.21 C 396.58 430.78 406.66 442.06 416.44 453.56 C 430.93 470.07 444.80 487.18 459.38 503.60 C 461.90 506.62 464.12 510.21 467.10 512.78 L 467.74 512.67 C 472.52 502.26 476.08 491.22 480.73 480.72 C 484.14 473.25 486.36 465.36 490.02 458.01 C 493.70 450.44 496.13 442.24 499.36 434.46 C 505.71 437.80 512.00 440.96 518.01 444.90 C 522.48 441.99 526.90 439.93 531.91 438.09 C 534.32 443.04 535.52 448.71 537.09 453.97 C 542.43 471.48 547.00 489.22 552.21 506.76 C 553.72 512.70 555.10 518.68 556.47 524.65 C 559.53 520.92 562.18 516.76 564.82 512.81 C 577.32 495.02 589.91 477.31 602.74 459.76 C 608.49 451.23 615.19 443.43 620.87 434.86 C 623.85 430.82 626.72 426.71 629.69 422.66 C 630.69 421.58 632.19 419.32 633.76 419.26 C 637.68 423.42 640.77 427.50 646.55 429.20 C 653.73 431.16 659.25 427.92 665.84 426.09 C 668.19 433.76 669.59 441.76 671.44 449.57 C 677.10 473.65 682.39 497.79 688.21 521.85 C 688.52 523.09 688.78 524.32 688.74 525.61 C 686.30 526.39 683.76 526.97 681.21 527.23 C 680.61 526.23 680.03 525.21 679.46 524.19 C 677.89 526.10 677.52 528.42 674.86 529.11 C 672.64 529.94 669.78 529.38 669.39 526.67 C 666.89 516.17 664.47 505.66 661.82 495.20 C 659.08 483.54 656.70 471.81 653.84 460.18 C 652.59 455.32 651.82 450.08 650.00 445.44 C 646.70 449.53 645.33 455.22 642.88 459.91 C 638.96 467.54 635.56 475.38 632.28 483.29 C 625.94 497.18 619.96 511.25 614.40 525.46 C 605.35 546.64 599.33 569.04 597.33 592.02 C 596.79 601.11 598.13 609.58 596.07 618.04 C 595.42 620.55 595.15 623.56 593.73 625.75 C 587.51 625.24 581.45 623.38 575.23 622.67 C 566.90 621.22 558.48 620.82 550.10 619.73 C 541.00 618.64 532.05 618.93 522.92 618.38 C 507.36 617.94 491.74 618.40 476.22 619.38 C 468.01 620.75 459.73 620.77 451.57 622.46 C 446.49 623.01 441.46 624.27 436.38 624.67 C 431.26 617.78 432.98 610.98 432.73 603.00 C 432.93 595.29 431.70 587.84 430.71 580.22 C 428.90 568.79 424.99 557.56 421.48 546.55 C 415.88 531.39 408.13 516.50 400.94 502.05 C 397.14 495.15 393.70 488.07 389.76 481.25 C 386.17 474.21 382.67 467.16 378.65 460.36 C 375.97 455.92 373.93 451.10 371.08 446.78 C 370.11 451.10 369.66 455.61 369.08 460.01 C 366.87 474.98 364.36 489.87 361.82 504.79 C 360.46 513.72 359.90 523.04 357.70 531.80 L 356.98 532.27 C 354.56 531.41 352.31 529.88 349.84 529.28 C 346.28 528.88 342.64 529.40 339.07 528.95 C 339.15 526.58 339.51 524.26 339.91 521.92 C 341.81 509.71 343.75 497.52 345.51 485.28 C 348.51 469.05 350.58 452.69 353.50 436.43 C 354.02 434.29 354.45 431.54 355.97 429.87 C 359.67 431.45 362.79 433.33 367.00 433.14 C 376.02 432.98 383.03 427.01 386.89 419.21 Z" fill="#272221" />
<path d="M 636.04 429.63 C 637.01 430.04 637.97 430.52 638.90 431.06 C 632.07 441.06 624.61 450.72 617.68 460.70 C 607.20 474.64 597.62 489.21 587.19 503.19 C 583.26 508.33 579.96 513.89 576.07 519.06 C 572.09 524.48 568.39 530.08 564.69 535.70 C 563.55 537.06 563.19 538.75 561.15 538.77 C 560.94 537.87 560.80 536.97 560.75 536.06 C 562.60 531.55 565.98 527.65 568.48 523.46 C 579.24 508.23 590.18 493.06 600.89 477.89 C 610.75 463.51 621.46 449.74 631.49 435.48 C 632.90 433.49 634.34 431.38 636.04 429.63 Z" fill="#ffffff" />
<path d="M 657.01 435.06 L 658.59 435.47 C 664.30 454.84 668.42 474.54 672.74 494.25 C 675.14 502.58 676.30 511.13 678.44 519.51 C 678.90 521.24 678.63 522.60 678.00 524.24 C 675.61 520.13 675.14 514.61 674.01 510.00 C 669.28 489.45 665.05 468.76 659.67 448.37 C 658.54 443.84 657.07 439.79 657.01 435.06 Z" fill="#ffffff" />
<path d="M 363.16 439.02 C 363.62 442.76 362.75 446.47 362.15 450.15 C 360.35 461.67 358.50 473.13 356.58 484.63 C 354.69 498.67 351.80 512.50 350.36 526.60 C 348.64 526.64 348.93 525.36 348.57 524.07 C 348.45 522.41 348.73 520.65 348.98 519.01 C 351.13 506.63 352.65 494.16 354.69 481.77 C 356.32 469.06 359.02 456.55 360.84 443.87 C 361.23 442.51 361.30 439.11 363.16 439.02 Z" fill="#ffffff" />
<path d="M 504.84 446.05 C 505.65 447.36 506.45 448.25 506.04 449.89 C 504.01 461.77 502.10 473.65 499.53 485.43 C 496.56 502.04 494.33 518.78 491.52 535.43 C 490.18 544.94 487.99 554.32 486.68 563.84 C 485.05 574.49 483.48 585.14 481.72 595.76 C 480.87 600.66 481.02 605.79 479.80 610.60 C 470.35 611.06 461.11 612.60 451.73 613.71 C 448.28 614.20 444.72 615.05 441.24 615.07 C 440.96 607.72 441.40 600.36 440.82 593.01 C 440.64 584.15 438.36 575.90 436.62 567.29 C 434.29 556.07 430.22 545.19 427.08 534.18 C 432.40 543.08 437.82 551.93 443.21 560.79 C 446.10 565.41 448.36 571.11 452.18 574.95 C 455.71 570.98 456.96 564.77 458.90 559.90 C 468.23 535.14 478.51 510.52 487.81 485.71 C 491.11 478.82 493.55 471.61 496.60 464.61 C 499.30 458.45 501.38 451.82 504.84 446.05 Z" fill="#ffffff" />
<path d="M 682.39 533.29 C 683.63 532.26 684.67 533.68 685.63 534.37 C 690.85 539.14 695.70 544.31 700.83 549.17 C 702.72 550.97 704.73 552.84 706.19 555.01 C 700.97 561.69 694.46 567.47 688.68 573.68 C 686.85 575.62 685.18 577.61 682.94 579.09 C 680.25 577.83 678.10 575.10 675.94 573.08 C 672.51 569.83 669.25 566.43 665.95 563.06 C 663.83 560.88 661.25 558.62 659.79 555.96 C 661.41 552.38 665.24 549.73 667.91 546.91 C 672.69 542.49 676.97 536.87 682.39 533.29 Z" fill="#272221" />
<path d="M 344.97 535.59 C 347.58 536.89 349.77 539.14 351.80 541.19 C 357.06 546.53 362.70 551.62 367.69 557.21 C 367.71 558.24 366.57 559.18 365.98 559.96 C 360.24 566.22 353.98 571.98 348.34 578.33 C 347.30 579.43 346.20 580.48 344.98 581.39 C 340.47 577.88 336.52 573.56 332.37 569.63 C 329.02 565.94 324.88 562.93 321.81 559.02 C 324.05 555.22 327.73 551.98 330.68 548.68 C 333.83 545.16 337.33 542.02 340.63 538.64 C 341.85 537.49 343.30 535.99 344.97 535.59 Z" fill="#272221" />
</svg>
