<svg width="77" height="77" viewBox="0 0 77 77" fill="none" xmlns="http://www.w3.org/2000/svg">
<path d="M36.7407 0.804439C38.6578 0.804439 40.6148 0.719995 42.5185 0.939255C43.9718 0.939255 45.3022 1.37185 46.7215 1.58666C47.397 1.69333 48.0444 1.89333 48.6963 2.09481C51.5511 2.84148 54.2741 3.97333 56.8696 5.36888C58.32 6.21925 59.9007 7.06666 61.1822 8.15555C61.677 8.55407 62.2178 8.87851 62.6726 9.3274C63.157 9.79703 63.7481 10.1126 64.2237 10.5896C65.1363 11.5052 66.0607 12.4074 66.9629 13.3348C67.2859 13.6756 67.5052 14.0726 67.8015 14.4326C68.4178 15.0637 68.8829 15.7985 69.44 16.4785C69.7926 16.9674 70.0963 17.4859 70.4637 17.9659C71.2904 19.203 71.9526 20.5052 72.7007 21.7985C73.5096 23.757 74.3926 25.637 74.9644 27.6859C75.5526 29.5393 75.9378 31.44 76.243 33.3585C76.6104 35.8726 76.5526 38.3585 76.523 40.8889C76.5096 41.5867 76.3852 42.2726 76.3704 42.9689C76.3318 44.2237 75.9363 45.3867 75.7733 46.6C75.6978 47.0696 75.5318 47.5274 75.4192 47.9896C74.6741 51.0978 73.477 54.0593 71.9629 56.8696C71.0592 58.4296 70.2281 59.96 69.0518 61.3422C68.4607 62.2356 67.6904 62.9585 67.0844 63.8385C66.08 64.9467 64.9881 65.9852 63.9215 67.0326C63.3704 67.4741 62.7852 67.8444 62.2844 68.3511C60.6311 69.5393 59.0681 70.8044 57.2474 71.7407C56.5867 72.0504 56.0044 72.4978 55.3378 72.7896C53.5081 73.5289 51.7837 74.3555 49.8726 74.8948C47.9481 75.5155 45.9718 75.9363 43.9748 76.2415C41.7659 76.5659 39.5585 76.56 37.3333 76.5348C36.1615 76.5541 35.0044 76.4044 33.837 76.32C32.1067 75.9896 30.3096 75.7941 28.637 75.2385C26.7541 74.7526 24.9141 74.0696 23.1348 73.2889C22.3718 72.92 21.6118 72.5467 20.8474 72.1778C18.6459 70.9496 16.3526 69.5985 14.5081 67.8667C14.0504 67.4652 13.5392 67.1748 13.1096 66.7437C12.2207 65.8533 11.323 64.9718 10.4415 64.0741C9.99406 63.6207 9.71258 63.0459 9.25925 62.5926C8.79702 62.1363 8.49776 61.5793 8.10073 61.0711C7.02073 59.68 6.0785 58.1956 5.26369 56.6326C4.66962 55.6904 4.20888 54.6844 3.8148 53.643C3.4148 52.5556 2.91998 51.5156 2.59998 50.397C1.47258 46.8933 0.76591 43.2459 0.794058 39.5556C0.798503 37.9689 0.749615 36.3941 0.939245 34.8148C0.942208 33.3156 1.39554 31.9467 1.60739 30.4785C1.94517 29.2533 2.23258 27.9985 2.62665 26.797C3.21332 25.1926 3.71851 23.6326 4.50665 22.1111C5.37628 20.2933 6.43258 18.5556 7.56887 16.8948C8.24295 16.0844 8.80443 15.1941 9.53184 14.4311C9.90369 13.9985 10.1807 13.5126 10.5896 13.1096C11.237 12.4726 11.8637 11.8148 12.5155 11.1822C12.9733 10.7378 13.3674 10.2756 13.9052 9.91999C14.2948 9.66666 14.6341 9.36296 14.9733 9.04888C16.8059 7.60592 18.7141 6.2874 20.7896 5.21185C22.357 4.21629 23.9867 3.74222 25.6918 3.02222C29.2222 1.76296 32.9867 0.921476 36.7407 0.804439Z" fill="#FED001"/>
<path d="M58.7259 21.5422C59.4978 21.2696 60.3333 21.4756 60.88 22.0844C61.6489 22.8667 61.5837 24.3156 60.6148 24.9126C59.7111 25.5793 58.4311 25.3274 57.7467 24.4756C57.3437 23.9096 57.3111 23.0993 57.5911 22.4741C57.8074 22.0237 58.2622 21.7022 58.7259 21.5422Z" fill="#272221"/>
<path d="M16.3541 21.9896C16.7156 21.877 17.1052 21.8607 17.477 21.9185C18.7244 22.0963 19.5422 23.6993 18.8696 24.7941C18.4074 25.7126 17.2652 26.037 16.3215 25.7659C15.5185 25.4741 14.88 24.5956 14.9926 23.7244C15.0533 22.9511 15.6178 22.2296 16.3541 21.9896Z" fill="#272221"/>
<path d="M39.0281 22.1689C40.0178 21.9259 40.8296 22.4178 41.5126 23.08C42.0311 23.6252 42.2933 24.3778 42.1615 25.1274C41.9778 26.0341 41.2963 26.8267 40.3807 27.0504C38.9289 27.5926 37.0711 26.7422 36.7363 25.1807C36.4652 23.7615 37.7022 22.443 39.0281 22.1689Z" fill="#272221"/>
<path d="M20.1319 24.92C21.5674 26.6341 23.0608 28.3052 24.5096 30.0089C26.6563 32.4548 28.7111 34.9896 30.8711 37.4222C31.2445 37.8696 31.5734 38.4015 32.0148 38.7822L32.1096 38.7659C32.8178 37.2237 33.3452 35.5881 34.0341 34.0326C34.5393 32.9259 34.8682 31.757 35.4104 30.6681C35.9556 29.5467 36.3156 28.3319 36.7941 27.1793C37.7348 27.6741 38.6667 28.1422 39.5571 28.7259C40.2193 28.2948 40.8741 27.9896 41.6163 27.717C41.9733 28.4504 42.1511 29.2904 42.3837 30.0696C43.1748 32.6637 43.8519 35.2919 44.6237 37.8904C44.8474 38.7704 45.0519 39.6563 45.2548 40.5407C45.7082 39.9882 46.1008 39.3719 46.4919 38.7867C48.3437 36.1511 50.2089 33.5274 52.1096 30.9274C52.9615 29.6637 53.9541 28.5081 54.7956 27.2385C55.2371 26.64 55.6622 26.0311 56.1022 25.4311C56.2504 25.2711 56.4726 24.9363 56.7052 24.9274C57.2859 25.5437 57.7437 26.1481 58.6 26.4C59.6637 26.6904 60.4815 26.2104 61.4578 25.9393C61.8059 27.0756 62.0133 28.2607 62.2874 29.4178C63.1259 32.9852 63.9096 36.5615 64.7719 40.1259C64.8178 40.3096 64.8563 40.4918 64.8504 40.683C64.4889 40.7985 64.1126 40.8844 63.7348 40.923C63.6459 40.7748 63.56 40.6237 63.4756 40.4726C63.243 40.7556 63.1882 41.0993 62.7941 41.2015C62.4652 41.3244 62.0415 41.2415 61.9837 40.84C61.6134 39.2844 61.2548 37.7274 60.8622 36.1778C60.4563 34.4504 60.1037 32.7126 59.68 30.9896C59.4948 30.2696 59.3808 29.4933 59.1111 28.8059C58.6222 29.4119 58.4193 30.2548 58.0563 30.9496C57.4756 32.08 56.9719 33.2415 56.4859 34.4133C55.5467 36.4711 54.6608 38.5556 53.8371 40.6607C52.4963 43.7985 51.6045 47.117 51.3082 50.5215C51.2282 51.8682 51.4267 53.123 51.1215 54.3763C51.0252 54.7481 50.9852 55.1941 50.7748 55.5185C49.8533 55.443 48.9556 55.1674 48.0341 55.0622C46.8 54.8474 45.5526 54.7881 44.3111 54.6267C42.963 54.4652 41.6371 54.5081 40.2845 54.4267C37.9793 54.3615 35.6652 54.4296 33.3659 54.5748C32.1496 54.7778 30.923 54.7807 29.7141 55.0311C28.9615 55.1126 28.2163 55.2993 27.4637 55.3585C26.7052 54.3378 26.96 53.3304 26.923 52.1481C26.9526 51.0059 26.7704 49.9022 26.6237 48.7733C26.3556 47.08 25.7763 45.4163 25.2563 43.7852C24.4267 41.5393 23.2785 39.3333 22.2133 37.1926C21.6504 36.1704 21.1408 35.1215 20.5571 34.1111C20.0252 33.0681 19.5067 32.0237 18.9111 31.0163C18.5141 30.3585 18.2119 29.6444 17.7896 29.0044C17.6459 29.6444 17.5793 30.3126 17.4933 30.9644C17.1659 33.1822 16.7941 35.3881 16.4178 37.5985C16.2163 38.9215 16.1334 40.3022 15.8074 41.6L15.7008 41.6696C15.3422 41.5422 15.0089 41.3156 14.643 41.2267C14.1156 41.1674 13.5763 41.2444 13.0474 41.1778C13.0593 40.8267 13.1126 40.483 13.1719 40.1363C13.4533 38.3274 13.7408 36.5215 14.0015 34.7081C14.4459 32.3037 14.7526 29.88 15.1852 27.4711C15.2622 27.1541 15.3259 26.7467 15.5511 26.4993C16.0993 26.7333 16.5615 27.0119 17.1852 26.9837C18.5215 26.96 19.56 26.0756 20.1319 24.92Z" fill="#272221"/>
<path d="M57.043 26.4637C57.1867 26.5244 57.3289 26.5956 57.4667 26.6756C56.4548 28.157 55.3496 29.5882 54.323 31.0667C52.7704 33.1319 51.3511 35.2904 49.8059 37.3615C49.2237 38.123 48.7348 38.9467 48.1585 39.7126C47.5689 40.5156 47.0207 41.3452 46.4726 42.1778C46.3037 42.3793 46.2504 42.6296 45.9481 42.6326C45.917 42.4993 45.8963 42.3659 45.8889 42.2311C46.163 41.563 46.6637 40.9852 47.0341 40.3645C48.6281 38.1082 50.2489 35.8607 51.8356 33.6133C53.2963 31.483 54.883 29.443 56.3689 27.3304C56.5778 27.0356 56.7911 26.723 57.043 26.4637Z" fill="white"/>
<path d="M60.1496 27.2682L60.3837 27.3289C61.2296 30.1985 61.84 33.117 62.48 36.037C62.8356 37.2711 63.0074 38.5378 63.3244 39.7793C63.3926 40.0356 63.3526 40.237 63.2593 40.48C62.9052 39.8711 62.8356 39.0533 62.6681 38.3704C61.9674 35.3259 61.3407 32.2607 60.5437 29.24C60.3763 28.5689 60.1585 27.9689 60.1496 27.2682Z" fill="white"/>
<path d="M16.6163 27.8548C16.6844 28.4089 16.5555 28.9585 16.4667 29.5037C16.2 31.2104 15.9259 32.9081 15.6415 34.6119C15.3615 36.6919 14.9333 38.7407 14.72 40.8296C14.4652 40.8356 14.5081 40.6459 14.4548 40.4548C14.437 40.2089 14.4785 39.9481 14.5155 39.7052C14.8341 37.8711 15.0593 36.0237 15.3615 34.1881C15.603 32.3052 16.003 30.4519 16.2726 28.5733C16.3304 28.3719 16.3407 27.8681 16.6163 27.8548Z" fill="white"/>
<path d="M37.6059 28.8963C37.7259 29.0904 37.8445 29.2222 37.7837 29.4652C37.483 31.2252 37.2 32.9852 36.8193 34.7304C36.3793 37.1911 36.0489 39.6711 35.6326 42.1378C35.4341 43.5467 35.1096 44.9363 34.9156 46.3467C34.6741 47.9244 34.4415 49.5022 34.1808 51.0756C34.0548 51.8015 34.077 52.5615 33.8963 53.2741C32.4963 53.3422 31.1274 53.5704 29.7378 53.7348C29.2267 53.8074 28.6993 53.9333 28.1837 53.9363C28.1422 52.8474 28.2074 51.757 28.1215 50.6681C28.0948 49.3556 27.757 48.1333 27.4993 46.8578C27.1541 45.1956 26.5511 43.5837 26.0859 41.9526C26.8741 43.2711 27.677 44.5822 28.4756 45.8948C28.9037 46.5793 29.2385 47.4237 29.8045 47.9926C30.3274 47.4044 30.5126 46.4844 30.8 45.763C32.1822 42.0948 33.7052 38.4474 35.083 34.7718C35.5719 33.7511 35.9333 32.683 36.3852 31.6459C36.7852 30.7333 37.0933 29.7511 37.6059 28.8963Z" fill="white"/>
<path d="M63.9096 41.8207C64.0933 41.6681 64.2474 41.8785 64.3896 41.9807C65.1629 42.6874 65.8815 43.4533 66.6415 44.1733C66.9215 44.44 67.2192 44.717 67.4355 45.0385C66.6622 46.0282 65.6978 46.8844 64.8415 47.8044C64.5704 48.0919 64.3229 48.3867 63.9911 48.6059C63.5926 48.4193 63.2741 48.0148 62.9541 47.7156C62.4459 47.2341 61.9629 46.7304 61.4741 46.2311C61.16 45.9082 60.7778 45.5733 60.5615 45.1793C60.8015 44.6489 61.3689 44.2563 61.7644 43.8385C62.4726 43.1837 63.1067 42.3511 63.9096 41.8207Z" fill="#272221"/>
<path d="M13.9215 42.1615C14.3081 42.3541 14.6326 42.6874 14.9333 42.9911C15.7126 43.7822 16.5481 44.5363 17.2874 45.3644C17.2904 45.517 17.1215 45.6563 17.0341 45.7719C16.1837 46.6993 15.2563 47.5526 14.4207 48.4933C14.2667 48.6563 14.1037 48.8119 13.923 48.9467C13.2548 48.4267 12.6696 47.7867 12.0548 47.2044C11.5585 46.6578 10.9452 46.2119 10.4904 45.6326C10.8222 45.0696 11.3674 44.5896 11.8044 44.1007C12.2711 43.5793 12.7896 43.1141 13.2785 42.6133C13.4592 42.443 13.6741 42.2207 13.9215 42.1615Z" fill="#272221"/>
</svg>
