<svg width="337" height="102" viewBox="0 0 337 102" fill="none" xmlns="http://www.w3.org/2000/svg">
<path d="M53.7407 13.016C55.6578 13.016 57.6148 12.9315 59.5185 13.1508C60.9718 13.1508 62.3022 13.5834 63.7215 13.7982C64.397 13.9049 65.0444 14.1049 65.6963 14.3064C68.5511 15.053 71.2741 16.1849 73.8696 17.5804C75.32 18.4308 76.9007 19.2782 78.1822 20.3671C78.677 20.7656 79.2178 21.0901 79.6726 21.539C80.157 22.0086 80.7481 22.3241 81.2237 22.8012C82.1363 23.7167 83.0607 24.619 83.9629 25.5464C84.2859 25.8871 84.5052 26.2841 84.8015 26.6441C85.4178 27.2752 85.8829 28.0101 86.44 28.6901C86.7926 29.179 87.0963 29.6975 87.4637 30.1775C88.2904 31.4145 88.9526 32.7167 89.7007 34.0101C90.5096 35.9686 91.3926 37.8486 91.9644 39.8975C92.5526 41.7508 92.9378 43.6515 93.243 45.5701C93.6104 48.0841 93.5526 50.5701 93.523 53.1004C93.5096 53.7982 93.3852 54.4841 93.3704 55.1804C93.3318 56.4352 92.9363 57.5982 92.7733 58.8115C92.6978 59.2812 92.5318 59.739 92.4192 60.2012C91.6741 63.3093 90.477 66.2708 88.9629 69.0812C88.0592 70.6412 87.2281 72.1715 86.0518 73.5538C85.4607 74.4471 84.6904 75.1701 84.0844 76.0501C83.08 77.1582 81.9881 78.1967 80.9215 79.2441C80.3704 79.6856 79.7852 80.056 79.2844 80.5627C77.6311 81.7508 76.0681 83.016 74.2474 83.9523C73.5867 84.2619 73.0044 84.7093 72.3378 85.0012C70.5081 85.7404 68.7837 86.5671 66.8726 87.1064C64.9481 87.7271 62.9718 88.1478 60.9748 88.453C58.7659 88.7775 56.5585 88.7715 54.3333 88.7464C53.1615 88.7656 52.0044 88.616 50.837 88.5315C49.1067 88.2012 47.3096 88.0056 45.637 87.4501C43.7541 86.9641 41.9141 86.2812 40.1348 85.5004C39.3718 85.1315 38.6118 84.7582 37.8474 84.3893C35.6459 83.1612 33.3526 81.8101 31.5081 80.0782C31.0504 79.6767 30.5392 79.3864 30.1096 78.9553C29.2207 78.0649 28.323 77.1834 27.4415 76.2856C26.9941 75.8323 26.7126 75.2575 26.2592 74.8041C25.797 74.3478 25.4978 73.7908 25.1007 73.2827C24.0207 71.8915 23.0785 70.4071 22.2637 68.8441C21.6696 67.9019 21.2089 66.896 20.8148 65.8545C20.4148 64.7671 19.92 63.7271 19.6 62.6086C18.4726 59.1049 17.7659 55.4575 17.7941 51.7671C17.7985 50.1804 17.7496 48.6056 17.9392 47.0264C17.9422 45.5271 18.3955 44.1582 18.6074 42.6901C18.9452 41.4649 19.2326 40.2101 19.6267 39.0086C20.2133 37.4041 20.7185 35.8441 21.5067 34.3227C22.3763 32.5049 23.4326 30.7671 24.5689 29.1064C25.2429 28.296 25.8044 27.4056 26.5318 26.6427C26.9037 26.2101 27.1807 25.7241 27.5896 25.3212C28.237 24.6841 28.8637 24.0264 29.5155 23.3938C29.9733 22.9493 30.3674 22.4871 30.9052 22.1315C31.2948 21.8782 31.6341 21.5745 31.9733 21.2604C33.8059 19.8175 35.7141 18.499 37.7896 17.4234C39.357 16.4278 40.9867 15.9538 42.6918 15.2338C46.2222 13.9745 49.9867 13.133 53.7407 13.016Z" fill="#FED001"/>
<path d="M75.7259 33.7538C76.4978 33.4812 77.3333 33.6871 77.88 34.296C78.6489 35.0782 78.5837 36.5271 77.6148 37.1241C76.7111 37.7908 75.4311 37.539 74.7467 36.6871C74.3437 36.1212 74.3111 35.3108 74.5911 34.6856C74.8074 34.2353 75.2622 33.9138 75.7259 33.7538Z" fill="#272221"/>
<path d="M33.3541 34.2012C33.7156 34.0886 34.1052 34.0723 34.477 34.1301C35.7244 34.3078 36.5422 35.9108 35.8696 37.0056C35.4074 37.9241 34.2652 38.2486 33.3215 37.9775C32.5185 37.6856 31.88 36.8071 31.9926 35.936C32.0533 35.1627 32.6178 34.4412 33.3541 34.2012Z" fill="#272221"/>
<path d="M56.0281 34.3804C57.0178 34.1375 57.8296 34.6293 58.5126 35.2916C59.0311 35.8367 59.2933 36.5893 59.1615 37.339C58.9778 38.2456 58.2963 39.0382 57.3807 39.2619C55.9289 39.8041 54.0711 38.9538 53.7363 37.3923C53.4652 35.973 54.7022 34.6545 56.0281 34.3804Z" fill="#272221"/>
<path d="M37.1319 37.1315C38.5674 38.8456 40.0608 40.5167 41.5096 42.2204C43.6563 44.6664 45.7111 47.2012 47.8711 49.6338C48.2445 50.0812 48.5734 50.613 49.0148 50.9938L49.1096 50.9775C49.8178 49.4352 50.3452 47.7997 51.0341 46.2441C51.5393 45.1375 51.8682 43.9686 52.4104 42.8797C52.9556 41.7582 53.3156 40.5434 53.7941 39.3908C54.7348 39.8856 55.6667 40.3538 56.5571 40.9375C57.2193 40.5064 57.8741 40.2012 58.6163 39.9286C58.9733 40.6619 59.1511 41.5019 59.3837 42.2812C60.1748 44.8753 60.8519 47.5034 61.6237 50.1019C61.8474 50.9819 62.0519 51.8678 62.2548 52.7523C62.7082 52.1997 63.1008 51.5834 63.4919 50.9982C65.3437 48.3627 67.2089 45.739 69.1096 43.139C69.9615 41.8753 70.9541 40.7197 71.7956 39.4501C72.2371 38.8515 72.6622 38.2427 73.1022 37.6427C73.2504 37.4827 73.4726 37.1478 73.7052 37.139C74.2859 37.7553 74.7437 38.3597 75.6 38.6115C76.6637 38.9019 77.4815 38.4219 78.4578 38.1508C78.8059 39.2871 79.0133 40.4723 79.2874 41.6293C80.1259 45.1967 80.9096 48.773 81.7719 52.3375C81.8178 52.5212 81.8563 52.7034 81.8504 52.8945C81.4889 53.0101 81.1126 53.096 80.7348 53.1345C80.6459 52.9864 80.56 52.8353 80.4756 52.6841C80.243 52.9671 80.1882 53.3108 79.7941 53.413C79.4652 53.536 79.0415 53.453 78.9837 53.0515C78.6134 51.496 78.2548 49.939 77.8622 48.3893C77.4563 46.6619 77.1037 44.9241 76.68 43.2012C76.4948 42.4812 76.3808 41.7049 76.1111 41.0175C75.6222 41.6234 75.4193 42.4664 75.0563 43.1612C74.4756 44.2915 73.9719 45.453 73.4859 46.6249C72.5467 48.6827 71.6608 50.7671 70.8371 52.8723C69.4963 56.0101 68.6045 59.3286 68.3082 62.733C68.2282 64.0797 68.4267 65.3345 68.1215 66.5878C68.0252 66.9597 67.9852 67.4056 67.7748 67.7301C66.8533 67.6545 65.9556 67.379 65.0341 67.2738C63.8 67.059 62.5526 66.9997 61.3111 66.8382C59.963 66.6767 58.6371 66.7197 57.2845 66.6382C54.9793 66.573 52.6652 66.6412 50.3659 66.7864C49.1496 66.9893 47.923 66.9923 46.7141 67.2427C45.9615 67.3241 45.2163 67.5108 44.4637 67.5701C43.7052 66.5493 43.96 65.5419 43.923 64.3597C43.9526 63.2175 43.7704 62.1138 43.6237 60.9849C43.3556 59.2915 42.7763 57.6278 42.2563 55.9967C41.4267 53.7508 40.2785 51.5449 39.2133 49.4041C38.6504 48.3819 38.1408 47.333 37.5571 46.3227C37.0252 45.2797 36.5067 44.2352 35.9111 43.2278C35.5141 42.5701 35.2119 41.856 34.7896 41.216C34.6459 41.856 34.5793 42.5241 34.4933 43.176C34.1659 45.3938 33.7941 47.5997 33.4178 49.8101C33.2163 51.133 33.1334 52.5138 32.8074 53.8115L32.7008 53.8812C32.3422 53.7538 32.0089 53.5271 31.643 53.4382C31.1156 53.379 30.5763 53.456 30.0474 53.3893C30.0593 53.0382 30.1126 52.6945 30.1719 52.3478C30.4533 50.539 30.7408 48.733 31.0015 46.9197C31.4459 44.5153 31.7526 42.0915 32.1852 39.6827C32.2622 39.3656 32.3259 38.9582 32.5511 38.7108C33.0993 38.9449 33.5615 39.2234 34.1852 39.1953C35.5215 39.1715 36.56 38.2871 37.1319 37.1315Z" fill="#272221"/>
<path d="M74.043 38.6753C74.1867 38.736 74.3289 38.8071 74.4667 38.8871C73.4548 40.3686 72.3496 41.7997 71.323 43.2782C69.7704 45.3434 68.3511 47.5019 66.8059 49.573C66.2237 50.3345 65.7348 51.1582 65.1585 51.9241C64.5689 52.7271 64.0207 53.5567 63.4726 54.3893C63.3037 54.5908 63.2504 54.8412 62.9481 54.8441C62.917 54.7108 62.8963 54.5775 62.8889 54.4427C63.163 53.7745 63.6637 53.1967 64.0341 52.576C65.6281 50.3197 67.2489 48.0723 68.8356 45.8249C70.2963 43.6945 71.883 41.6545 73.3689 39.5419C73.5778 39.2471 73.7911 38.9345 74.043 38.6753Z" fill="white"/>
<path d="M77.1496 39.4797L77.3837 39.5404C78.2296 42.4101 78.84 45.3286 79.48 48.2486C79.8356 49.4827 80.0074 50.7493 80.3244 51.9908C80.3926 52.2471 80.3526 52.4486 80.2593 52.6915C79.9052 52.0827 79.8356 51.2649 79.6681 50.5819C78.9674 47.5375 78.3407 44.4723 77.5437 41.4515C77.3763 40.7804 77.1585 40.1804 77.1496 39.4797Z" fill="white"/>
<path d="M33.6163 40.0664C33.6844 40.6204 33.5555 41.1701 33.4667 41.7153C33.2 43.4219 32.9259 45.1197 32.6415 46.8234C32.3615 48.9034 31.9333 50.9523 31.72 53.0412C31.4652 53.0471 31.5081 52.8575 31.4548 52.6664C31.437 52.4204 31.4785 52.1597 31.5155 51.9167C31.8341 50.0827 32.0593 48.2352 32.3615 46.3997C32.603 44.5167 33.003 42.6634 33.2726 40.7849C33.3304 40.5834 33.3407 40.0797 33.6163 40.0664Z" fill="white"/>
<path d="M54.6059 41.1078C54.7259 41.3019 54.8445 41.4338 54.7837 41.6767C54.483 43.4367 54.2 45.1967 53.8193 46.9419C53.3793 49.4027 53.0489 51.8827 52.6326 54.3493C52.4341 55.7582 52.1096 57.1478 51.9156 58.5582C51.6741 60.136 51.4415 61.7138 51.1808 63.2871C51.0548 64.013 51.077 64.773 50.8963 65.4856C49.4963 65.5538 48.1274 65.7819 46.7378 65.9464C46.2267 66.019 45.6993 66.1449 45.1837 66.1478C45.1422 65.059 45.2074 63.9686 45.1215 62.8797C45.0948 61.5671 44.757 60.3449 44.4993 59.0693C44.1541 57.4071 43.5511 55.7952 43.0859 54.1641C43.8741 55.4827 44.677 56.7938 45.4756 58.1064C45.9037 58.7908 46.2385 59.6353 46.8045 60.2041C47.3274 59.616 47.5126 58.696 47.8 57.9745C49.1822 54.3064 50.7052 50.659 52.083 46.9834C52.5719 45.9627 52.9333 44.8945 53.3852 43.8575C53.7852 42.9449 54.0933 41.9627 54.6059 41.1078Z" fill="white"/>
<path d="M80.9096 54.0323C81.0933 53.8797 81.2474 54.0901 81.3896 54.1923C82.1629 54.899 82.8815 55.6649 83.6415 56.3849C83.9215 56.6515 84.2192 56.9286 84.4355 57.2501C83.6622 58.2397 82.6978 59.096 81.8415 60.016C81.5704 60.3034 81.3229 60.5982 80.9911 60.8175C80.5926 60.6308 80.2741 60.2264 79.9541 59.9271C79.4459 59.4456 78.9629 58.9419 78.4741 58.4427C78.16 58.1197 77.7778 57.7849 77.5615 57.3908C77.8015 56.8604 78.3689 56.4678 78.7644 56.0501C79.4726 55.3953 80.1067 54.5627 80.9096 54.0323Z" fill="#272221"/>
<path d="M30.9215 54.373C31.3081 54.5656 31.6326 54.899 31.9333 55.2027C32.7126 55.9938 33.5481 56.7478 34.2874 57.576C34.2904 57.7286 34.1215 57.8678 34.0341 57.9834C33.1837 58.9108 32.2563 59.7641 31.4207 60.7049C31.2667 60.8678 31.1037 61.0234 30.923 61.1582C30.2548 60.6382 29.6696 59.9982 29.0548 59.416C28.5585 58.8693 27.9452 58.4234 27.4904 57.8441C27.8222 57.2812 28.3674 56.8012 28.8044 56.3123C29.2711 55.7908 29.7896 55.3256 30.2785 54.8249C30.4592 54.6545 30.6741 54.4323 30.9215 54.373Z" fill="#272221"/>
<path d="M122.328 50.0312C121.568 49.1146 120.521 48.6562 119.188 48.6562C117.854 48.6562 116.766 49.1302 115.922 50.0781C115.078 51.0156 114.583 52.3021 114.438 53.9375H123.484C123.484 52.2396 123.099 50.9375 122.328 50.0312ZM119.703 64.3594C117.214 64.3594 115.25 63.5677 113.812 61.9844C112.385 60.401 111.672 58.2344 111.672 55.4844C111.672 52.8281 112.365 50.6771 113.75 49.0312C115.135 47.375 116.958 46.5312 119.219 46.5C121.344 46.5 123.026 47.2292 124.266 48.6875C125.516 50.1354 126.141 52.0729 126.141 54.5C126.141 54.625 126.135 54.8542 126.125 55.1875C126.125 55.5208 126.125 55.7604 126.125 55.9062H114.359C114.391 57.8542 114.891 59.375 115.859 60.4688C116.839 61.5521 118.151 62.0938 119.797 62.0938C121.609 62.0938 123.427 61.6146 125.25 60.6562L125.656 62.7656C123.917 63.8281 121.932 64.3594 119.703 64.3594ZM134.875 64.3594C133.708 64.3594 132.63 64.2344 131.641 63.9844C130.661 63.7344 129.865 63.4115 129.25 63.0156L129.578 60.8125C131.318 61.7396 133.026 62.2031 134.703 62.2031C137.245 62.2031 138.552 61.3073 138.625 59.5156C138.625 58.7552 138.354 58.1562 137.812 57.7188C137.271 57.2812 136.208 56.7917 134.625 56.25L133.328 55.7969C131.828 55.2969 130.755 54.6771 130.109 53.9375C129.474 53.1979 129.151 52.276 129.141 51.1719C129.141 49.8281 129.677 48.7135 130.75 47.8281C131.833 46.9427 133.312 46.5 135.188 46.5C137.125 46.5 138.891 46.875 140.484 47.625L139.719 49.625C138.104 48.9583 136.594 48.625 135.188 48.625C134.094 48.625 133.234 48.8438 132.609 49.2812C131.995 49.7083 131.688 50.3125 131.688 51.0938C131.688 51.7604 131.911 52.2708 132.359 52.625C132.807 52.9792 133.703 53.3854 135.047 53.8438C135.391 53.9688 135.823 54.1146 136.344 54.2812C138.073 54.8438 139.297 55.5104 140.016 56.2812C140.734 57.0417 141.094 58.0729 141.094 59.375C141.073 60.9583 140.505 62.1875 139.391 63.0625C138.276 63.9271 136.771 64.3594 134.875 64.3594ZM152.469 48.6719C150.812 48.6719 149.542 49.2448 148.656 50.3906C147.781 51.526 147.344 53.1979 147.344 55.4062C147.344 59.9271 149.047 62.1875 152.453 62.1875C153.297 62.1875 154.036 62.0156 154.672 61.6719C155.318 61.3177 155.823 60.8281 156.188 60.2031C156.562 59.5677 156.839 58.8542 157.016 58.0625C157.203 57.2708 157.297 56.3906 157.297 55.4219C157.297 54.1094 157.141 52.9635 156.828 51.9844C156.526 51.0052 156.005 50.2083 155.266 49.5938C154.526 48.9792 153.594 48.6719 152.469 48.6719ZM152.734 46.5C154.255 46.5 155.568 46.8854 156.672 47.6562C157.776 48.4271 158.604 49.474 159.156 50.7969C159.708 52.1198 159.984 53.6354 159.984 55.3438C159.984 57.1146 159.708 58.6719 159.156 60.0156C158.615 61.3594 157.786 62.4219 156.672 63.2031C155.568 63.974 154.245 64.3594 152.703 64.3594C151.568 64.3594 150.531 64.1146 149.594 63.625C148.656 63.1354 147.875 62.4688 147.25 61.625L146.984 64H144.75V40.2031L147.359 40.0469V45.7188C147.359 47.1146 147.339 48.3125 147.297 49.3125C147.901 48.4479 148.682 47.7656 149.641 47.2656C150.609 46.7552 151.641 46.5 152.734 46.5ZM163.078 58.2812V46.8594H165.703V58.3125C165.703 59.0625 165.807 59.6979 166.016 60.2188C166.234 60.7396 166.542 61.1458 166.938 61.4375C167.344 61.7188 167.797 61.9219 168.297 62.0469C168.807 62.1719 169.391 62.2344 170.047 62.2344C171.401 62.2344 172.453 61.9375 173.203 61.3438C173.964 60.75 174.344 59.7396 174.344 58.3125V46.8594H176.969V58.2812C176.969 59.1562 176.844 59.9427 176.594 60.6406C176.344 61.3385 176.005 61.9219 175.578 62.3906C175.161 62.849 174.656 63.2292 174.062 63.5312C173.469 63.8333 172.839 64.0521 172.172 64.1875C171.516 64.3229 170.807 64.3906 170.047 64.3906C169.297 64.3906 168.589 64.3229 167.922 64.1875C167.255 64.0521 166.62 63.8333 166.016 63.5312C165.422 63.2188 164.906 62.8333 164.469 62.375C164.042 61.9062 163.703 61.3229 163.453 60.625C163.203 59.9271 163.078 59.1458 163.078 58.2812ZM183.938 46.8594V64H181.312V46.8594H183.938ZM183.938 40.625V43.7188H181.312V40.625H183.938ZM193.469 64.3125C191.802 64.3125 190.62 63.8646 189.922 62.9688C189.234 62.0729 188.891 60.5156 188.891 58.2969V40.2031L191.484 40.0469V57.2656C191.484 57.974 191.49 58.5417 191.5 58.9688C191.521 59.3958 191.562 59.8177 191.625 60.2344C191.688 60.6406 191.771 60.9479 191.875 61.1562C191.979 61.3646 192.13 61.5573 192.328 61.7344C192.526 61.901 192.76 62.0156 193.031 62.0781C193.312 62.1302 193.656 62.1562 194.062 62.1562C194.396 62.1562 195.052 62.0938 196.031 61.9688L196.172 64.0469C195.099 64.224 194.198 64.3125 193.469 64.3125ZM204.453 62.1094C206.172 62.1094 207.448 61.5573 208.281 60.4531C209.125 59.349 209.547 57.7708 209.547 55.7188C209.547 53.4062 209.141 51.6667 208.328 50.5C207.526 49.3229 206.224 48.7344 204.422 48.7344C203.62 48.7344 202.911 48.9062 202.297 49.25C201.682 49.5938 201.188 50.0729 200.812 50.6875C200.438 51.3021 200.151 52.0104 199.953 52.8125C199.766 53.6042 199.672 54.474 199.672 55.4219C199.672 56.7552 199.833 57.9115 200.156 58.8906C200.49 59.8698 201.021 60.651 201.75 61.2344C202.479 61.8177 203.38 62.1094 204.453 62.1094ZM209.594 61.5156C209.031 62.3802 208.281 63.0677 207.344 63.5781C206.406 64.0885 205.359 64.3438 204.203 64.3438C201.943 64.3438 200.172 63.5417 198.891 61.9375C197.609 60.3229 196.969 58.1302 196.969 55.3594C196.969 52.7135 197.62 50.5781 198.922 48.9531C200.224 47.3177 201.969 46.5 204.156 46.5C205.292 46.5 206.359 46.75 207.359 47.25C208.37 47.7396 209.125 48.401 209.625 49.2344L209.578 47.75V40.2031L212.156 40.0469V64H209.938L209.594 61.5156ZM215.812 56.2344V53.9375H223.625V56.2344H215.812ZM230.125 46.8594V66.1719C230.125 67.276 230.052 68.1667 229.906 68.8438C229.771 69.5208 229.505 70.0938 229.109 70.5625C228.724 71.0417 228.198 71.375 227.531 71.5625C226.865 71.75 225.995 71.8438 224.922 71.8438H224.109L223.766 69.4844H224.578C224.984 69.4844 225.333 69.4583 225.625 69.4062C225.927 69.3646 226.182 69.3073 226.391 69.2344C226.609 69.1615 226.786 69.0417 226.922 68.875C227.057 68.7083 227.161 68.5469 227.234 68.3906C227.318 68.2448 227.375 68.0208 227.406 67.7188C227.448 67.4167 227.474 67.1458 227.484 66.9062C227.495 66.6667 227.5 66.3281 227.5 65.8906V46.8594H230.125ZM230.125 40.625V43.7188H227.5V40.625H230.125ZM244.047 50.0312C243.286 49.1146 242.24 48.6562 240.906 48.6562C239.573 48.6562 238.484 49.1302 237.641 50.0781C236.797 51.0156 236.302 52.3021 236.156 53.9375H245.203C245.203 52.2396 244.818 50.9375 244.047 50.0312ZM241.422 64.3594C238.932 64.3594 236.969 63.5677 235.531 61.9844C234.104 60.401 233.391 58.2344 233.391 55.4844C233.391 52.8281 234.083 50.6771 235.469 49.0312C236.854 47.375 238.677 46.5312 240.938 46.5C243.062 46.5 244.745 47.2292 245.984 48.6875C247.234 50.1354 247.859 52.0729 247.859 54.5C247.859 54.625 247.854 54.8542 247.844 55.1875C247.844 55.5208 247.844 55.7604 247.844 55.9062H236.078C236.109 57.8542 236.609 59.375 237.578 60.4688C238.557 61.5521 239.87 62.0938 241.516 62.0938C243.328 62.0938 245.146 61.6146 246.969 60.6562L247.375 62.7656C245.635 63.8281 243.651 64.3594 241.422 64.3594ZM256.594 64.3594C255.427 64.3594 254.349 64.2344 253.359 63.9844C252.38 63.7344 251.583 63.4115 250.969 63.0156L251.297 60.8125C253.036 61.7396 254.745 62.2031 256.422 62.2031C258.964 62.2031 260.271 61.3073 260.344 59.5156C260.344 58.7552 260.073 58.1562 259.531 57.7188C258.99 57.2812 257.927 56.7917 256.344 56.25L255.047 55.7969C253.547 55.2969 252.474 54.6771 251.828 53.9375C251.193 53.1979 250.87 52.276 250.859 51.1719C250.859 49.8281 251.396 48.7135 252.469 47.8281C253.552 46.9427 255.031 46.5 256.906 46.5C258.844 46.5 260.609 46.875 262.203 47.625L261.438 49.625C259.823 48.9583 258.312 48.625 256.906 48.625C255.812 48.625 254.953 48.8438 254.328 49.2812C253.714 49.7083 253.406 50.3125 253.406 51.0938C253.406 51.7604 253.63 52.2708 254.078 52.625C254.526 52.9792 255.422 53.3854 256.766 53.8438C257.109 53.9688 257.542 54.1146 258.062 54.2812C259.792 54.8438 261.016 55.5104 261.734 56.2812C262.453 57.0417 262.812 58.0729 262.812 59.375C262.792 60.9583 262.224 62.1875 261.109 63.0625C259.995 63.9271 258.49 64.3594 256.594 64.3594ZM271.859 64.3125C270.172 64.3125 268.974 63.901 268.266 63.0781C267.557 62.2552 267.182 60.9271 267.141 59.0938V48.7969H264.594L264.703 47.0781L267.125 46.8594L268.016 42.9375L269.734 42.875V46.8594H274.5V48.7969H269.734V58.625C269.734 59.9271 269.932 60.8438 270.328 61.375C270.724 61.9062 271.401 62.1719 272.359 62.1719C272.703 62.1719 273.448 62.0885 274.594 61.9219L274.703 63.9844C273.464 64.2031 272.516 64.3125 271.859 64.3125ZM276.594 56.2344V53.9375H284.406V56.2344H276.594ZM295.234 64.3594C292.714 64.3594 290.74 63.5417 289.312 61.9062C287.896 60.2708 287.188 58.1302 287.188 55.4844C287.198 52.8177 287.922 50.6562 289.359 49C290.807 47.3333 292.786 46.5 295.297 46.5C296.182 46.5 297.036 46.6094 297.859 46.8281C298.693 47.0469 299.349 47.3333 299.828 47.6875L299.109 49.7188C297.891 49.0625 296.604 48.7344 295.25 48.7344C293.594 48.7344 292.281 49.3385 291.312 50.5469C290.354 51.7552 289.875 53.4062 289.875 55.5C289.875 57.5417 290.349 59.1615 291.297 60.3594C292.255 61.5469 293.578 62.1406 295.266 62.1406C296.609 62.1406 297.984 61.776 299.391 61.0469L299.719 63.125C298.583 63.9479 297.089 64.3594 295.234 64.3594ZM307.719 64.3125C306.052 64.3125 304.87 63.8646 304.172 62.9688C303.484 62.0729 303.141 60.5156 303.141 58.2969V40.2031L305.734 40.0469V57.2656C305.734 57.974 305.74 58.5417 305.75 58.9688C305.771 59.3958 305.812 59.8177 305.875 60.2344C305.938 60.6406 306.021 60.9479 306.125 61.1562C306.229 61.3646 306.38 61.5573 306.578 61.7344C306.776 61.901 307.01 62.0156 307.281 62.0781C307.562 62.1302 307.906 62.1562 308.312 62.1562C308.646 62.1562 309.302 62.0938 310.281 61.9688L310.422 64.0469C309.349 64.224 308.448 64.3125 307.719 64.3125ZM315.094 46.8594V64H312.469V46.8594H315.094ZM315.094 40.625V43.7188H312.469V40.625H315.094Z" fill="black"/>
</svg>
